<?xml version="1.0" standalone="no"?>
<!DOCTYPE svg PUBLIC "-//W3C//DTD SVG 20010904//EN"
 "http://www.w3.org/TR/2001/REC-SVG-20010904/DTD/svg10.dtd">
<svg version="1.0" xmlns="http://www.w3.org/2000/svg"
 width="28.000000pt" height="28.000000pt" viewBox="0 0 28.000000 28.000000"
 preserveAspectRatio="xMidYMid meet">

<g transform="translate(0.000000,28.000000) scale(0.100000,-0.100000)"
fill="#000000" stroke="none">
<path d="M117 212 c-31 -32 -57 -64 -57 -73 0 -8 27 -41 60 -74 l60 -59 25 24
25 24 -42 43 -42 43 42 43 42 43 -23 22 c-13 12 -25 22 -28 22 -3 0 -30 -26
-62 -58z m79 17 c3 -6 -11 -28 -32 -50 l-38 -39 39 -40 c31 -31 36 -43 27 -52
-10 -10 -23 -1 -64 40 l-53 52 50 50 c52 52 60 57 71 39z"/>
</g>
</svg>
