<?xml version="1.0" standalone="no"?>
<!DOCTYPE svg PUBLIC "-//W3C//DTD SVG 20010904//EN"
 "http://www.w3.org/TR/2001/REC-SVG-20010904/DTD/svg10.dtd">
<svg version="1.0" xmlns="http://www.w3.org/2000/svg"
 width="28.000000pt" height="28.000000pt" viewBox="0 0 28.000000 28.000000"
 preserveAspectRatio="xMidYMid meet">

<g transform="translate(0.000000,28.000000) scale(0.100000,-0.100000)"
fill="#000000" stroke="none">
<path d="M72 248 l-22 -22 42 -43 42 -43 -42 -43 -42 -43 25 -24 25 -24 60 59
c33 33 60 66 60 75 0 14 -108 130 -121 130 -2 0 -15 -10 -27 -22z m83 -58 l50
-50 -53 -52 c-41 -41 -54 -50 -64 -40 -9 9 -4 21 27 52 l39 40 -38 39 c-33 34
-41 61 -18 61 4 0 30 -23 57 -50z"/>
</g>
</svg>
