<svg width="82" height="77" viewBox="0 0 82 77" fill="none" xmlns="http://www.w3.org/2000/svg">
<g clip-path="url(#clip0_0_361)">
<path d="M50.2187 50.8328L26.585 31.6946C26.0433 31.256 25.9591 30.4541 26.3976 29.9125L29.5873 25.9735C30.0259 25.4319 30.8279 25.3476 31.3695 25.7862L55.0032 44.9244C55.5448 45.363 55.6291 46.1649 55.1905 46.7065L52.0008 50.6455C51.5622 51.1871 50.7603 51.2714 50.2187 50.8328Z" fill="#FD0054"/>
<path d="M45.2456 63.5179L66.3774 37.4224C67.5835 35.933 69.7889 35.7012 71.2783 36.9073C72.7678 38.1134 72.9996 40.3188 71.7935 41.8082L50.6617 67.9038C49.4556 69.3932 47.2502 69.625 45.7608 68.4189C44.2713 67.2128 44.0395 65.0073 45.2456 63.5179Z" fill="#FD0054"/>
<path d="M72.2841 50.7655L70.807 49.5694C70.2654 49.1308 69.4634 49.2151 69.0248 49.7567L57.8609 63.543C57.4223 64.0846 57.5066 64.8866 58.0482 65.3252L59.5253 66.5213C60.8793 67.6178 62.8843 67.4071 63.9807 66.0531L72.7524 55.2209C73.8489 53.8669 73.6381 51.862 72.2841 50.7655Z" fill="#FD0054"/>
<path d="M15.2115 39.1967L36.3433 13.1012C37.5494 11.6118 37.3176 9.40635 35.8281 8.20024C34.3387 6.99414 32.1333 7.22594 30.9272 8.71535L9.79545 34.8109C8.58934 36.3003 8.82114 38.5057 10.3106 39.7118C11.8 40.9179 14.0054 40.6861 15.2115 39.1967Z" fill="#FD0054"/>
<path d="M23.5395 11.2932L22.0624 10.0971C20.7084 9.00062 18.7035 9.21135 17.607 10.5654L8.83535 21.3975C7.73889 22.7515 7.94962 24.7564 9.30363 25.8529L10.7807 27.049C11.3223 27.4876 12.1243 27.4033 12.5629 26.8617L23.7268 13.0754C24.1654 12.5338 24.0811 11.7318 23.5395 11.2932Z" fill="#FD0054"/>
</g>
<defs>
<clipPath id="clip0_0_361">
<rect width="70.9586" height="40.5479" fill="white" transform="translate(25.9805 0.225586) rotate(39)"/>
</clipPath>
</defs>
</svg>
