<svg width="43" height="52" viewBox="0 0 43 52" fill="none" xmlns="http://www.w3.org/2000/svg">
<path d="M11.9388 32.2248L12.8579 32.6188L13.4556 31.2248H11.9388V32.2248ZM10.5148 35.5462V36.5462H11.1741L11.4339 35.9402L10.5148 35.5462ZM15.775 38.9051L14.8558 38.5113L14.8552 38.5127L15.775 38.9051ZM16.6207 36.9307L17.5399 37.3245L17.8861 36.5165L17.1292 36.0696L16.6207 36.9307ZM15.5941 36.3246L15.0855 37.1856L15.0857 37.1857L15.5941 36.3246ZM11.9388 32.2248V31.2248H10.3781L11.0303 32.6427L11.9388 32.2248ZM37.9471 23.2305H38.9471V22.2305H37.9471V23.2305ZM33.7107 23.2305L32.8125 23.67L33.0868 24.2305H33.7107V23.2305ZM31.2033 18.1069L30.305 18.5464L30.3051 18.5465L31.2033 18.1069ZM25.259 13.2057L24.974 14.1642L24.9929 14.1698L25.0121 14.1747L25.259 13.2057ZM18.42 11.1717L18.7051 10.2132L18.6795 10.2056L18.6536 10.1993L18.42 11.1717ZM10.6418 12.8208L11.2502 13.6145L11.2503 13.6144L10.6418 12.8208ZM6.82494 15.7468L7.43315 16.5405L7.43333 16.5404L6.82494 15.7468ZM10.5716 20.6326L11.1797 21.4265L11.1798 21.4264L10.5716 20.6326ZM14.3904 17.7067L14.9986 18.5005L14.9995 18.4998L14.3904 17.7067ZM16.8218 17.1159L17.1068 16.1574L17.0801 16.1494L17.0529 16.143L16.8218 17.1159ZM18.2362 17.5364L19.1553 17.9304L19.5979 16.8979L18.5212 16.5778L18.2362 17.5364ZM14.6319 25.9447L13.7128 25.5508L13.7126 25.5512L14.6319 25.9447ZM17.1624 33.6719L17.6708 32.8107L17.6708 32.8107L17.1624 33.6719ZM25.3389 38.4991L26.2932 38.7979L26.5302 38.0411L25.8473 37.6379L25.3389 38.4991ZM22.6958 46.9401L23.6501 47.239L23.6502 47.2389L22.6958 46.9401ZM24.7135 50.7974L25.0126 49.8432L25.0124 49.8431L24.7135 50.7974ZM28.5718 48.7798L29.526 49.079L29.5261 49.0786L28.5718 48.7798ZM31.6161 39.0562L32.5704 39.3549L32.5743 39.3424L32.5779 39.3298L31.6161 39.0562ZM29.5339 33.8229L30.0505 32.9666L30.0422 32.9617L29.5339 33.8229ZM23.6416 30.3457L22.7132 29.9743L22.3946 30.7709L23.1334 31.2069L23.6416 30.3457ZM26.6542 22.8139L27.5524 22.3744L26.5623 20.3507L25.7257 22.4425L26.6542 22.8139ZM28.6045 26.8001L27.7062 27.2396L27.7064 27.2398L28.6045 26.8001ZM37.9471 23.2305H36.9471V24.2305H37.9471V23.2305ZM27.1709 11.9157C30.2738 11.9157 32.7893 9.40032 32.7893 6.29734H30.7893C30.7893 8.29576 29.1693 9.91573 27.1709 9.91573V11.9157ZM32.7893 6.29734C32.7893 3.19436 30.2738 0.678955 27.1709 0.678955V2.67896C29.1693 2.67896 30.7893 4.29893 30.7893 6.29734H32.7893ZM27.1709 0.678955C24.0679 0.678955 21.5525 3.19436 21.5525 6.29734H23.5525C23.5525 4.29893 25.1725 2.67896 27.1709 2.67896V0.678955ZM21.5525 6.29734C21.5525 9.40032 24.0679 11.9157 27.1709 11.9157V9.91573C25.1725 9.91573 23.5525 8.29576 23.5525 6.29734H21.5525ZM11.0198 31.8307L9.59575 35.1521L11.4339 35.9402L12.8579 32.6188L11.0198 31.8307ZM10.5148 34.5462H4.07893V36.5462H10.5148V34.5462ZM4.07893 34.5462C1.8265 34.5462 0 36.3727 0 38.6251H2C2 37.4772 2.93106 36.5462 4.07893 36.5462V34.5462ZM0 38.6251C0 40.8775 1.8265 42.704 4.07893 42.704V40.704C2.93107 40.704 2 39.773 2 38.6251H0ZM4.07893 42.704H11.5309V40.704H4.07893V42.704ZM11.5309 42.704C13.7827 42.704 15.8127 41.3651 16.6948 39.2975L14.8552 38.5127C14.2883 39.8415 12.9834 40.704 11.5309 40.704V42.704ZM16.6942 39.2988L17.5399 37.3245L15.7015 36.537L14.8558 38.5113L16.6942 39.2988ZM17.1292 36.0696L16.1025 35.4635L15.0857 37.1857L16.1123 37.7918L17.1292 36.0696ZM16.1027 35.4635C14.6273 34.5921 13.5333 33.2981 12.8473 31.8069L11.0303 32.6427C11.8704 34.469 13.228 36.0884 15.0855 37.1856L16.1027 35.4635ZM11.9388 33.2248H11.9388V31.2248H11.9388V33.2248ZM37.9471 22.2305H33.7107V24.2305H37.9471V22.2305ZM34.6089 22.7909L32.1015 17.6674L30.3051 18.5465L32.8125 23.67L34.6089 22.7909ZM32.1016 17.6675C30.7733 14.9525 28.3309 12.9566 25.506 12.2367L25.0121 14.1747C27.2539 14.746 29.2279 16.3448 30.305 18.5464L32.1016 17.6675ZM25.5441 12.2472L18.7051 10.2132L18.1349 12.1302L24.974 14.1642L25.5441 12.2472ZM18.6536 10.1993C15.6377 9.47467 12.4927 10.1414 10.0333 12.0273L11.2503 13.6144C13.2304 12.0961 15.7564 11.5601 18.1863 12.144L18.6536 10.1993ZM10.0335 12.0272L6.21656 14.9531L7.43333 16.5404L11.2502 13.6145L10.0335 12.0272ZM6.21674 14.953C4.42846 16.3232 4.08911 18.8833 5.46211 20.6719L7.04857 19.4541C6.34907 18.5429 6.52159 17.239 7.43315 16.5405L6.21674 14.953ZM5.46211 20.6719C6.83473 22.4601 9.39307 22.7951 11.1797 21.4265L9.96349 19.8388C9.05224 20.5368 7.74845 20.3658 7.04857 19.4541L5.46211 20.6719ZM11.1798 21.4264L14.9986 18.5005L13.7822 16.9129L9.96342 19.8388L11.1798 21.4264ZM14.9995 18.4998C15.5232 18.0977 16.1589 17.9863 16.5907 18.0888L17.0529 16.143C15.978 15.8877 14.7337 16.1823 13.7814 16.9136L14.9995 18.4998ZM16.5369 18.0745L17.9513 18.4949L18.5212 16.5778L17.1068 16.1574L16.5369 18.0745ZM17.3171 17.1424L13.7128 25.5508L15.5511 26.3387L19.1553 17.9304L17.3171 17.1424ZM13.7126 25.5512C12.3006 28.8497 13.5647 32.7091 16.654 34.533L17.6708 32.8107C15.4471 31.498 14.5348 28.7127 15.5512 26.3383L13.7126 25.5512ZM16.654 34.533L24.8305 39.3602L25.8473 37.6379L17.6708 32.8107L16.654 34.533ZM24.3846 38.2002L21.7415 46.6413L23.6502 47.2389L26.2932 38.7979L24.3846 38.2002ZM21.7415 46.6413C21.0684 48.7906 22.2655 51.0787 24.4146 51.7517L25.0124 49.8431C23.9171 49.5002 23.3072 48.3341 23.6501 47.239L21.7415 46.6413ZM24.4144 51.7517C24.818 51.8782 25.2287 51.9398 25.6353 51.9398V49.9398C25.4318 49.9398 25.2228 49.9091 25.0126 49.8432L24.4144 51.7517ZM25.6353 51.9398C27.3701 51.9398 28.979 50.8232 29.526 49.079L27.6176 48.4806C27.339 49.3688 26.5194 49.9398 25.6353 49.9398V51.9398ZM29.5261 49.0786L32.5704 39.3549L30.6617 38.7574L27.6175 48.481L29.5261 49.0786ZM32.5779 39.3298C33.2711 36.8936 32.2374 34.2858 30.0504 32.9667L29.0174 34.6792C30.4386 35.5365 31.0983 37.2219 30.6542 38.7825L32.5779 39.3298ZM30.0422 32.9617L24.1499 29.4845L23.1334 31.2069L29.0257 34.6842L30.0422 32.9617ZM24.5701 30.717L27.5827 23.1852L25.7257 22.4425L22.7132 29.9743L24.5701 30.717ZM25.7559 23.2533L27.7062 27.2396L29.5027 26.3606L27.5524 22.3744L25.7559 23.2533ZM27.7064 27.2398C28.644 29.155 30.6206 30.3874 32.7524 30.3874V28.3874C31.3838 28.3874 30.1044 27.5895 29.5026 26.3604L27.7064 27.2398ZM32.7524 30.3874H37.9471V28.3874H32.7524V30.3874ZM37.9471 30.3874C40.1995 30.3874 42.026 28.5609 42.026 26.3084H40.026C40.026 27.4563 39.095 28.3874 37.9471 28.3874V30.3874ZM42.026 26.3084C42.026 24.0556 40.1991 22.2305 37.9471 22.2305V24.2305C39.0954 24.2305 40.026 25.161 40.026 26.3084H42.026ZM38.9471 23.2305V23.2305H36.9471V23.2305H38.9471Z" fill="#FD0054"/>
</svg>
