<svg width="67" height="67" viewBox="0 0 67 67" fill="none" xmlns="http://www.w3.org/2000/svg">
<path fill-rule="evenodd" clip-rule="evenodd" d="M33.293 8.22898C38.0624 8.22898 41.9273 12.0939 41.9273 16.8633C41.9273 21.6327 38.0624 25.4976 33.293 25.4976C28.5235 25.4976 24.6587 21.6327 24.6587 16.8633C24.6587 12.0939 28.5235 8.22898 33.293 8.22898ZM33.293 45.2331C45.5043 45.2331 58.3736 51.236 58.3736 53.8674V58.3902H8.21238V53.8674C8.21238 51.236 21.0816 45.2331 33.293 45.2331ZM33.293 0.416992C24.2064 0.416992 16.8467 7.77671 16.8467 16.8633C16.8467 25.9499 24.2064 33.3096 33.293 33.3096C42.3795 33.3096 49.7393 25.9499 49.7393 16.8633C49.7393 7.7767 42.3795 0.416992 33.293 0.416992ZM33.293 37.4211C22.3151 37.4211 0.400391 42.9307 0.400391 53.8674V66.2021H66.1855V53.8674C66.1855 42.9307 44.2709 37.4211 33.293 37.4211Z" fill="#FD0054"/>
</svg>
