<svg width="75" height="75" viewBox="0 0 75 75" fill="none" xmlns="http://www.w3.org/2000/svg">
<path fill-rule="evenodd" clip-rule="evenodd" d="M37.5302 0.340332C17.0126 0.340332 0.560547 16.9767 0.560547 37.31C0.560547 57.6433 17.0126 74.2797 37.5302 74.2797C58.0478 74.2797 74.4999 57.6433 74.4999 37.31C74.4999 16.9767 57.8637 0.340332 37.5302 0.340332ZM37.5302 66.8857C21.2639 66.8857 7.95377 53.5761 7.95377 37.31C7.95377 21.0437 21.2641 7.73427 37.5302 7.73427C53.7963 7.73427 67.1067 21.0437 67.1067 37.31C67.1067 53.5763 53.7965 66.8857 37.5302 66.8857ZM50.4696 33.613C53.6125 33.613 56.0152 31.2104 56.0152 28.0676C56.0152 24.9248 53.6124 22.5221 50.4696 22.5221C47.3268 22.5221 44.9241 24.9248 44.9241 28.0676C44.9241 31.2104 47.3268 33.613 50.4696 33.613ZM24.5908 33.613C27.7336 33.613 30.1363 31.2104 30.1363 28.0676C30.1363 24.9248 27.7334 22.5221 24.5908 22.5221C21.4479 22.5221 19.0452 24.9248 19.0452 28.0676C19.0452 31.2104 21.4481 33.613 24.5908 33.613ZM37.5302 57.6433C46.2186 57.6433 53.4265 52.282 56.3849 44.7038H18.6755C21.634 52.282 28.8418 57.6433 37.5302 57.6433Z" fill="#FD0054"/>
</svg>
